<svg width="28" height="28" viewBox="0 0 28 28" xmlns="http://www.w3.org/2000/svg">
<path fill-rule="evenodd" clip-rule="evenodd" d="M23.1095 6.52673C23.1095 7.45456 22.3587 8.20673 21.4326 8.20673C20.5066 8.20673 19.7557 7.45456 19.7557 6.52673C19.7557 5.59891 20.5066 4.84673 21.4326 4.84673C22.3587 4.84673 23.1095 5.59891 23.1095 6.52673ZM13.9735 18.6667C11.4011 18.6667 9.31564 16.5773 9.31564 14C9.31564 11.4227 11.4011 9.3333 13.9735 9.3333C16.5459 9.3333 18.6314 11.4227 18.6314 14C18.6314 16.5773 16.5459 18.6667 13.9735 18.6667ZM13.9735 6.81078C10.0106 6.81078 6.79789 10.0295 6.79789 14C6.79789 17.9704 10.0106 21.1892 13.9735 21.1892C17.9364 21.1892 21.1491 17.9704 21.1491 14C21.1491 10.0295 17.9364 6.81078 13.9735 6.81078ZM13.9735 0C10.1785 0 9.70275 0.0160781 8.21228 0.0842187C6.72497 0.15225 5.70916 0.388828 4.82031 0.735C3.90145 1.09277 3.12221 1.5715 2.34537 2.34981C1.56853 3.12802 1.0907 3.90873 0.733609 4.82945C0.388202 5.71998 0.151962 6.73761 0.0840594 8.22784C0.0160477 9.72103 0 10.1978 0 14C0 17.8022 0.0160477 18.279 0.0840594 19.7722C0.151962 21.2623 0.388202 22.28 0.733609 23.1705C1.0907 24.091 1.56853 24.8719 2.34537 25.6502C3.12221 26.4285 3.90145 26.9072 4.82031 27.265C5.70916 27.6112 6.72497 27.8477 8.21228 27.9158C9.70275 27.9839 10.1785 28 13.9735 28C17.7685 28 18.2445 27.9839 19.7347 27.9158C21.2222 27.8477 22.2379 27.6112 23.1267 27.265C24.0456 26.9072 24.8249 26.4285 25.6018 25.6502C26.3785 24.8719 26.8563 24.0912 27.2135 23.1705C27.5589 22.28 27.7951 21.2623 27.863 19.7722C27.931 18.279 27.947 17.8022 27.947 14C27.947 10.1978 27.931 9.72103 27.863 8.22784C27.7951 6.73761 27.5589 5.71998 27.2135 4.82945C26.8563 3.90873 26.3785 3.12802 25.6018 2.34981C24.8249 1.5715 24.0456 1.09277 23.1267 0.735C22.2379 0.388828 21.2222 0.15225 19.7347 0.0842187C18.2445 0.0160781 17.7685 0 13.9735 0ZM13.9735 2.52252C17.7047 2.52252 18.1466 2.53673 19.62 2.60411C20.9824 2.66645 21.7223 2.8945 22.2148 3.08612C22.8669 3.34009 23.3325 3.64361 23.8213 4.13339C24.3104 4.62328 24.6131 5.08977 24.8667 5.74317C25.0581 6.23656 25.2857 6.97791 25.3478 8.3428C25.4151 9.81903 25.4293 10.2618 25.4293 14C25.4293 17.7381 25.4151 18.1809 25.3478 19.6571C25.2857 21.0222 25.0581 21.7634 24.8667 22.2568C24.6131 22.9102 24.3104 23.3766 23.8213 23.8666C23.3325 24.3564 22.8669 24.6599 22.2148 24.9138C21.7223 25.1055 20.9824 25.3335 19.62 25.3959C18.1468 25.4632 17.7049 25.4774 13.9735 25.4774C10.2423 25.4774 9.80023 25.4632 8.32701 25.3959C6.9647 25.3335 6.22476 25.1055 5.73241 24.9138C5.08013 24.6599 4.61453 24.3564 4.12557 23.8666C3.63671 23.3766 3.33388 22.9102 3.08039 22.2568C2.88902 21.7634 2.66141 21.0222 2.59929 19.6572C2.53193 18.1809 2.51774 17.7381 2.51774 14C2.51774 10.2618 2.53193 9.81903 2.59929 8.3428C2.66141 6.97791 2.88902 6.23656 3.08039 5.74317C3.33388 5.08977 3.63671 4.62328 4.12557 4.13339C4.61453 3.64361 5.08013 3.34009 5.73241 3.08612C6.22476 2.8945 6.9647 2.66645 8.32701 2.60411C9.80045 2.53673 10.2425 2.52252 13.9735 2.52252Z" fill="black"/>
</svg>
