<svg width="28" height="28" viewBox="0 0 28 28" fill="none" xmlns="http://www.w3.org/2000/svg">
<g clip-path="url(#clip0)">
<path d="M25.9 0H2.1C0.933333 0 0 0.933333 0 2.02222V25.9778C0 27.0667 0.933333 28 2.1 28H25.9778C27.1444 28 28.0778 27.0667 28.0778 25.9778V2.02222C28 0.933333 27.0667 0 25.9 0ZM8.32222 23.8778H4.12222V10.5H8.24444V23.8778H8.32222ZM6.22222 8.63333C4.9 8.63333 3.81111 7.54444 3.81111 6.22222C3.81111 4.9 4.9 3.88889 6.22222 3.88889C7.54444 3.88889 8.63333 4.97778 8.63333 6.3C8.63333 7.62222 7.54444 8.63333 6.22222 8.63333ZM23.8778 23.8778H19.7556V17.3444C19.7556 15.7889 19.7556 13.7667 17.5778 13.7667C15.4 13.7667 15.0889 15.4778 15.0889 17.1889V23.8H10.8889V10.5H14.8556V12.2889H14.9333C15.4778 11.2 16.8778 10.1111 18.9 10.1111C23.1 10.1111 23.8778 12.9111 23.8778 16.4889V23.8778Z" fill="white"/>
</g>
<defs>
<clipPath id="clip0">
<rect width="28" height="28" fill="white"/>
</clipPath>
</defs>
</svg>
