<svg width="1440" height="355" viewBox="0 0 1440 355" fill="none" xmlns="http://www.w3.org/2000/svg">
<path d="M1440 52H591.575H468.989H-2V82.0124C2.51633 82.0124 7.03266 81.913 11.549 81.7143C18.9687 81.4161 26.2271 80.1242 33.4855 79.528C39.1309 79.0311 44.7763 78.7329 50.583 78.5342C66.5515 77.7391 82.5199 76.9441 98.4884 76.3478C111.553 75.7516 124.619 75.2547 137.684 74.9565C151.233 74.559 164.943 74.559 178.492 74.1615C188.492 73.8634 198.493 73.3665 208.493 73.0683C212.526 72.9689 216.397 72.8696 220.429 72.7702C232.043 72.472 243.817 72.1739 255.431 71.7764C268.173 71.3789 280.755 70.9814 293.336 70.2857C304.788 69.6894 316.401 68.6957 327.853 67.9006C340.435 66.9068 353.016 66.0124 365.436 64.9193C378.34 63.8261 391.243 62.236 404.308 61.3416C415.277 60.5466 426.406 60.2484 437.536 59.9503C451.569 59.5528 465.602 59.354 479.634 59.2547C490.925 59.1553 502.377 59.2547 513.668 59.2547C530.604 59.2547 547.541 59.354 564.477 59.2547C573.994 59.1553 583.671 58.6584 593.188 58.4596C600.285 58.3602 607.382 58.4596 614.318 58.3602C622.221 58.2609 630.125 57.9627 637.867 57.8634C653.997 57.5652 670.288 57.3665 686.418 57.1677C692.225 57.0683 698.193 56.9689 703.999 57.0683C709.483 57.1677 714.806 57.4658 720.29 57.764C731.904 58.3602 743.517 58.9565 754.969 59.5528C760.937 59.8509 766.744 60.4472 772.551 60.646C778.841 60.8447 785.293 60.8447 791.745 60.8447C799.971 60.9441 808.198 61.1429 816.585 61.1429C824.166 61.1429 831.747 60.8447 839.328 60.7453C852.07 60.7453 864.813 60.8447 877.555 60.8447C881.588 60.8447 885.62 60.7453 889.492 60.7453C896.75 60.7453 904.008 60.646 911.428 60.7453C922.396 61.0435 933.364 61.5404 944.333 61.7391C959.011 62.0373 973.689 62.236 988.528 62.4348C1000.14 62.6335 1011.75 62.5342 1023.21 62.8323C1037.24 63.1304 1051.11 63.6273 1065.14 64.0248C1078.53 64.4224 1091.76 64.8199 1105.15 65.5155C1118.86 66.2112 1132.41 67.3043 1146.12 68.0994C1154.83 68.5963 1163.54 68.6957 1172.25 69.1925C1179.34 69.5901 1186.28 70.4845 1193.38 70.882C1204.99 71.5776 1216.76 71.9752 1228.54 72.472C1239.67 72.9689 1250.96 73.5652 1262.09 74.0621C1274.51 74.559 1287.09 74.8571 1299.67 75.354C1312.9 75.8509 1326.12 76.3478 1339.35 77.1429C1353.06 77.9379 1366.61 78.9317 1380.32 79.7267C1387.9 80.2236 1395.64 80.5217 1403.22 80.9193C1407.1 81.118 1410.81 81.5155 1414.68 81.8137C1421.13 82.4099 1427.42 83.0062 1433.87 83.6025C1435.97 83.8012 1437.9 84 1440 84.0994V52Z" fill="black"/>
<path d="M1419 355C1418.7 353.8 1418.2 352.6 1418.2 351.4C1417.9 346.7 1418.2 342 1417.5 337.4C1416.8 332.2 1418.7 327.4 1419.3 322.4C1419.7 319 1420 315.5 1420.4 312.1C1420.9 307 1421.5 302 1422 296.9C1422.4 292.7 1422.8 288.5 1423.2 284.3C1423.6 280.6 1423.9 276.9 1424.3 273.2C1424.3 272.8 1424.5 272.3 1424.3 272C1422.9 268.1 1425.1 264.4 1425.1 260.5C1425.1 253 1425.9 245.5 1426.5 238C1426.8 234.6 1427.3 231.3 1427.6 227.9C1427.7 226.7 1427.2 225.5 1427.2 224.3C1427.5 217.3 1427.9 210.3 1428.3 203.2C1428.6 198.1 1429.1 193 1429.4 187.9C1429.8 182.6 1429.4 177.1 1430.9 172.2C1431.8 169.2 1430.5 166.8 1431 164.1C1431.7 159.8 1431.4 155.3 1431.7 150.9C1432 146.6 1432.5 142.4 1432.9 138.1C1433.1 136.3 1433.6 134.6 1433.7 132.8C1433.7 131.8 1433.5 130.4 1431.8 130.5C1430.1 130.6 1428 129.7 1427.6 132.6C1427.1 136.3 1426.5 140.1 1426 143.8C1425.2 149.1 1424.6 154.4 1423.6 159.6C1422.9 163.8 1421.7 167.9 1420.9 172.1C1419.9 177.3 1419 182.5 1418 187.7C1417.1 192.3 1416.2 197 1415.3 201.6C1413.9 208.5 1412.4 215.4 1411 222.2C1409.7 228.6 1408.4 235 1407.1 241.4C1406.4 244.5 1405.4 247.5 1404.8 250.6C1404.1 254.1 1403.7 257.7 1403.1 261.3C1402.6 264.7 1402 268.1 1401.4 271.5C1400.8 274.9 1400.3 278.3 1399.7 281.7C1399.1 284.5 1398.4 287.3 1397.7 290C1397.4 291.3 1397.3 292.7 1397.1 294C1395.6 301 1394.3 308.1 1392.6 315.1C1390.6 323.2 1390.6 331.5 1390.8 339.7C1390.8 340.8 1391.3 341.8 1391.3 342.9C1391.3 343.6 1390.7 344.2 1390.3 344.9C1389.7 344.4 1389 344.1 1388.7 343.5C1388 342.1 1387.6 340.5 1386.5 338.9C1386.1 340.1 1385.6 341.4 1385.3 342.6C1384.7 345.4 1384.3 348.2 1383.7 351C1383.5 351.9 1382.9 352.6 1382.4 353.5C1379.6 351.4 1379 349.6 1379.7 346.7C1380.4 343.7 1380.8 340.6 1381.7 337.6C1383.2 332.7 1385.4 328 1386.6 323C1388.2 316.2 1389.2 309.2 1390.5 302.3C1391 299.5 1391.7 296.7 1392.3 293.9C1393 290.6 1393.7 287.4 1394.4 284.1C1395.2 280.2 1396.2 276.3 1396.8 272.4C1398.1 264.8 1399.3 257.2 1400.6 249.7C1401.3 245.8 1402.1 242 1402.9 238.2C1404.5 230.9 1406.1 223.7 1407.7 216.4C1409.4 208.7 1411.1 200.9 1412.7 193.1C1413.6 188.4 1413.9 183.4 1415.1 178.8C1416.5 173.3 1417.4 167.8 1417.9 162.2C1418.1 159.8 1419 157.5 1419.5 155.1C1421.1 147.4 1421 139.4 1423.8 132C1424.1 131.1 1423.8 129.9 1423.8 128.8C1422 128 1421 128.7 1420.4 130.2C1419.4 132.8 1418.5 135.4 1417.6 138C1415.6 143.7 1413.5 149.3 1411.7 155C1410.2 159.6 1409 164.3 1407.7 168.9C1407.5 169.8 1407.1 170.6 1406.8 171.4C1403.7 180.6 1400.7 189.9 1397.6 199.1C1395.6 205.1 1393.3 211 1391.2 217C1389 223.2 1386.8 229.5 1384.7 235.7C1382.5 242 1380.3 248.2 1378.1 254.5C1376 260.5 1374.1 266.6 1372 272.6C1369.7 279.2 1367.1 285.6 1364.8 292.2C1362.6 298.4 1360.6 304.7 1358.5 310.9C1357.4 314.1 1355.8 317.1 1355.3 320.4C1354.5 325.4 1350.4 329.5 1351.4 334.9C1351.7 336.4 1351.9 338 1352.1 339.5C1352.2 340.3 1351.9 341.1 1351.8 341.9C1351.5 341.9 1351.2 342 1350.9 342C1350.1 340.5 1349.2 338.9 1348.4 337.4C1345.3 341.2 1344.6 346 1343.1 350.6C1342.8 351.6 1342.1 352.6 1341.5 353.7C1337.9 350 1339.8 346.5 1340.7 343.2C1341.7 339.5 1342.9 335.8 1344.5 332.3C1346.1 328.6 1348.5 325.3 1350.1 321.6C1351.9 317.3 1353 312.8 1354.4 308.3C1354.9 306.7 1355.5 305 1356.1 303.4C1358.6 296.5 1361.2 289.6 1363.7 282.7C1367.1 273.3 1370.4 263.8 1373.7 254.3C1376 247.7 1378.3 241.1 1380.6 234.5C1381.4 232.1 1382.3 229.8 1383.1 227.4C1384.6 222.7 1386 217.9 1387.5 213.3C1388.8 209.4 1390.4 205.7 1391.7 201.8C1392.6 199.1 1393.2 196.3 1394.1 193.6C1394.8 191.5 1395.9 189.6 1396.6 187.5C1399.5 178.6 1402.4 169.7 1405.3 160.8C1407 155.7 1408.9 150.7 1410.6 145.6C1411.9 141.6 1412.9 137.4 1414.1 133.4C1414.5 132 1415.2 130.7 1415.6 129.3C1415.8 128.5 1415.9 126.9 1415.7 126.8C1414.3 126.4 1413.4 126.8 1412.7 128.4C1411.2 132.3 1409.4 136 1407.6 139.8C1405.9 143.2 1404 146.6 1402.3 150C1400.3 154 1398.5 158.1 1396.5 162.1C1393.8 167.6 1391 173 1388.3 178.4C1384.5 186.1 1380.7 193.9 1377 201.6C1374.7 206.3 1372.6 211.1 1370.1 215.7C1367.4 220.8 1364.5 225.7 1361.8 230.7C1359.5 234.9 1357 239 1355.2 243.5C1353.3 248.2 1351.1 252.7 1348.5 257C1346.8 259.8 1346.1 263.1 1344.7 266C1343.1 269.1 1341.1 272 1339.4 275C1337.8 277.8 1336.4 280.7 1334.8 283.6C1333 286.8 1331.2 290 1329.5 293.3C1326.7 298.7 1324.1 304.2 1321.3 309.6C1319.9 312.3 1318.2 314.9 1316.8 317.7C1315.2 320.8 1313.6 324 1312.3 327.3C1311.7 328.8 1312 330.6 1311.9 332.2C1311.9 333 1312.1 333.9 1311.8 334.7C1311.5 335.8 1310.8 336.8 1310.3 337.8C1309.6 337.1 1308.9 336.4 1308.3 335.7C1307.8 335.2 1307.5 334.5 1306.8 333.5C1304 339.8 1301.3 345.7 1298.4 352.1C1298.3 352.1 1297.5 352.2 1296.8 352.2C1296.1 351.4 1298.3 349.4 1295.7 350.1C1296.7 346.6 1297.6 343.2 1298.8 340C1299.8 337.3 1301.2 334.8 1302.6 332.3C1305.5 327.1 1308.7 322 1311.6 316.7C1314.6 311.3 1317.3 305.7 1320.2 300.2C1321.7 297.2 1323.1 294.2 1324.7 291.3C1326.1 288.6 1327.5 286 1329 283.3C1330.7 280.3 1332.5 277.4 1334.2 274.5C1336.3 270.7 1338.4 267 1340.5 263.2C1342.8 258.9 1345.2 254.6 1347.4 250.3C1348.7 247.8 1349.6 245 1350.8 242.5C1353 238 1355.3 233.5 1357.6 229C1360.2 224 1362.9 219 1365.4 213.9C1368.5 207.8 1371.4 201.6 1374.5 195.5C1377.5 189.7 1380.7 184 1383.6 178.2C1385 175.4 1385.9 172.3 1387.3 169.4C1389 165.8 1391 162.4 1392.8 158.8C1394.4 155.6 1395.8 152.3 1397.3 149.1C1398.5 146.6 1399.8 144.1 1401 141.6C1403.2 137 1405.3 132.4 1407.5 127.8C1408.2 126.3 1409.1 124.9 1409.8 123.5C1406.9 121 1406.2 121.4 1404.3 125.2C1401.5 130.7 1398.3 135.9 1395.3 141.2C1394 143.6 1392.9 146 1391.6 148.4C1390.3 150.9 1388.8 153.2 1387.5 155.7C1384.9 160.4 1382.6 165.2 1379.8 169.8C1376.9 174.5 1373.5 179 1370.3 183.6C1370.1 183.9 1369.7 184.2 1369.5 184.5C1365.4 191.4 1361.4 198.3 1357.2 205.1C1354.6 209.3 1351.6 213.2 1348.9 217.3C1346.9 220.3 1345.2 223.5 1343.2 226.4C1340.6 230.2 1337.7 233.9 1335.1 237.7C1330.7 244.1 1326.3 250.5 1321.9 257C1320.1 259.7 1318.6 262.6 1316.8 265.3C1314.7 268.4 1312.2 271.4 1310 274.5C1308.2 277 1306.5 279.7 1304.8 282.3C1302.9 285.2 1300.9 288 1298.9 290.8C1297.9 292.3 1296.9 293.7 1295.9 295.3C1293.5 299.4 1291.1 303.5 1288.6 307.5C1285.3 313 1281.8 318.4 1278.5 323.9C1278 324.8 1277.9 325.9 1277.8 327C1277.5 330.5 1277.5 333.9 1277.1 337.4C1277 338.2 1276.1 338.9 1275.5 339.7C1274.9 339 1273.9 338.5 1273.7 337.7C1273.3 335.9 1273.3 334 1273.2 332.2C1273.2 331.6 1273.4 331 1273.5 330.4C1273.3 330.3 1273.1 330.1 1272.8 330C1271.4 331.5 1269.9 332.9 1268.5 334.4C1265.2 338.1 1261.9 341.8 1259.7 346.3C1259.1 347.5 1258.8 348.9 1258.2 350.1C1257.7 351.2 1257.1 352.2 1256.4 353.3C1253 350.3 1254 346.1 1255.9 342.7C1257.7 339.5 1259.7 336.4 1261.7 333.3C1262.5 332.1 1263.8 331.3 1264.9 330.2C1266.6 328.6 1268.4 327 1270 325.3C1271.7 323.5 1273.3 321.6 1274.8 319.6C1276.4 317.5 1277.9 315.3 1279.3 313.1C1281.1 310.2 1282.9 307.3 1284.7 304.4C1287.7 299.5 1290.7 294.5 1293.8 289.7C1296.7 285.3 1300.2 281.2 1302.8 276.6C1305 272.7 1307.6 269.1 1310.4 265.6C1312.3 263.2 1313.5 260.2 1315.2 257.6C1317 254.8 1319.1 252 1321 249.2C1325.2 243.2 1329.3 237.2 1333.4 231.1C1335.7 227.8 1338.1 224.7 1340.3 221.3C1342.7 217.6 1344.9 213.7 1347.3 210C1349 207.3 1350.9 204.8 1352.7 202.2C1353.7 200.7 1354.4 199.1 1355.4 197.6C1357.9 193.6 1360.6 189.7 1363 185.6C1364.5 183.2 1365.6 180.5 1367.1 178.1C1368.5 175.8 1370.4 173.9 1371.7 171.6C1375.8 164.7 1379.7 157.8 1383.7 150.8C1384.9 148.8 1386.2 146.8 1387.4 144.8C1390 140.3 1392.4 135.6 1395.1 131.1C1397.2 127.5 1399.6 124.1 1401.7 120.5C1402.1 119.8 1402.4 118.5 1402 118.1C1401 117 1399.8 117.3 1398.8 118.5C1397.3 120.5 1395.7 122.4 1394.2 124.4C1391.1 128.5 1388.1 132.6 1385 136.7C1380.4 142.7 1375.7 148.6 1371.1 154.6C1367.7 159 1364.2 163.3 1360.9 167.7C1357.4 172.5 1354.3 177.6 1350.9 182.4C1348 186.5 1344.7 190.3 1341.6 194.2C1339.4 197.1 1337.2 200.1 1335.1 203.1C1331.8 207.6 1328.5 212 1325.3 216.5C1322.6 220.4 1319.9 224.3 1317.2 228.2C1314.3 232.4 1311.5 236.6 1308.4 240.8C1303.7 247.2 1299 253.6 1294 259.9C1291.1 263.6 1287.7 267 1284.7 270.7C1283.2 272.6 1282.2 275 1280.7 277C1279.1 279.1 1277.2 280.9 1275.6 282.9C1272.1 287.2 1268.8 291.6 1265.3 296C1263.1 298.8 1260.6 301.5 1258.4 304.3C1256.1 307.1 1254 310.2 1251.7 312.9C1248.3 316.9 1245 321 1241.1 324.6C1237.9 327.5 1237.5 331 1237 334.7C1236.7 336.6 1236.7 338.5 1236.4 340.3C1236.3 340.9 1235.6 341.7 1235.1 341.7C1234.4 341.7 1233.3 341.2 1233.1 340.7C1232.7 339.2 1232.6 337.6 1232.4 336.1C1232.3 335.3 1232.4 334.5 1232.4 333.2C1230.4 334.8 1228.6 336 1227.1 337.4C1224 340.5 1220.6 343.4 1218.4 347.1C1217.1 349.2 1216.4 350.7 1213.7 350C1213.4 348.9 1212.7 347.6 1212.9 346.6C1213.2 345.3 1214.1 343.9 1215 342.8C1218.7 338.8 1222.4 334.8 1226.2 330.9C1228.9 328.1 1231.7 325.4 1234.5 322.7C1235.5 321.8 1236.9 321.3 1237.8 320.3C1242.8 314.8 1247.9 309.3 1252.6 303.5C1258.3 296.5 1263.7 289.3 1269.3 282.3C1272.6 278.1 1276 274 1279.3 269.9C1283.6 264.5 1287.8 259 1291.9 253.5C1293.7 251.2 1295.2 248.6 1297 246.3C1299.1 243.7 1301.4 241.3 1303.4 238.6C1306.8 234.1 1310 229.6 1313.1 225C1315.7 221.3 1318 217.4 1320.6 213.7C1322.3 211.2 1324.3 208.9 1326 206.5C1329 202.4 1331.8 198.2 1334.8 194.1C1335.9 192.6 1337.2 191.3 1338.3 189.9C1340.7 186.8 1343 183.7 1345.3 180.6C1348.3 176.5 1351.2 172.3 1354.3 168.2C1357.6 163.8 1361 159.4 1364.4 155C1366.4 152.5 1368.4 150 1370.3 147.4C1373.3 143.5 1376.2 139.6 1379.1 135.7C1382 131.9 1384.9 128 1387.9 124.3C1390.6 120.9 1393.4 117.5 1396.3 114C1395.7 113.3 1395.1 112.6 1394.6 111.9C1393.4 110.5 1391.8 110.7 1390.8 112.1C1389.4 114.1 1388.1 116.2 1386.5 118C1383.7 121.3 1380.6 124.4 1377.7 127.7C1375.1 130.7 1372.8 134.1 1370.1 137.1C1367.7 139.8 1364.9 142.2 1362.5 144.9C1357.5 150.5 1352.6 156.2 1347.6 161.9C1346.2 163.5 1344.7 165.2 1343.3 166.8C1337.9 173.1 1332.6 179.3 1327.2 185.6C1325.7 187.3 1323.9 188.8 1322.4 190.5C1318.4 195.2 1314.6 200 1310.7 204.7C1309.1 206.6 1307.4 208.4 1305.8 210.3C1302.1 214.5 1298.4 218.8 1294.7 223C1292.6 225.4 1290.6 227.9 1288.5 230.4C1287 232.2 1285.6 234 1284.1 235.8C1284 235.9 1284 236 1284 236C1280 240.7 1276.1 245.5 1272 250.2C1268.3 254.4 1264.6 258.5 1260.8 262.5C1258 265.5 1254.9 268.2 1252.2 271.3C1249.1 274.7 1246.3 278.3 1243.4 281.7C1240.9 284.7 1238.3 287.6 1235.8 290.5C1233.2 293.5 1230.5 296.4 1227.8 299.4C1226.7 300.7 1225.4 301.9 1224.3 303.1C1218.1 309.5 1212 315.9 1205.7 322.2C1203.8 324.1 1201.6 325.5 1199.7 327.3C1199.1 327.8 1198.6 328.8 1198.5 329.6C1198.1 333.1 1197.8 336.6 1197.5 340C1194.9 340.4 1193.2 338.3 1193.8 335.9C1194 334.9 1194.2 333.8 1194 332.5C1187.9 337.4 1182.2 342.4 1177.8 349.5C1177.2 348.9 1176.6 348.2 1176 347.6C1175.7 347.3 1176.4 347.1 1176 346.9C1176 345.9 1175 344.9 1175 343.9C1178.1 340.4 1181 336.6 1184.4 333.4C1186.1 331.7 1187.4 329.6 1190.1 328.7C1191.7 328.2 1192.9 326.4 1194.3 325.2C1196.8 323.1 1199.5 321 1201.9 318.8C1205 315.9 1208 312.8 1211 309.8C1214.5 306.2 1217.9 302.6 1221.3 299C1223.5 296.6 1225.6 294.1 1227.8 291.7C1229.7 289.6 1231.7 287.7 1233.6 285.5C1235.6 283.2 1237.5 280.7 1239.5 278.4C1244.3 273.1 1249.2 267.9 1254 262.6C1255.4 261 1256.5 259.1 1258 257.6C1260.7 254.7 1264.1 252.3 1266.2 249.1C1268.8 245.3 1273 242.8 1274.8 238.3C1275.5 236.5 1277.2 235 1278.5 233.4C1283.7 227.2 1289 220.9 1294.3 214.8C1297.1 211.6 1300.3 208.8 1303.2 205.7C1304.3 204.6 1305.1 203.2 1306.1 202C1309.7 197.8 1313.4 193.7 1317 189.5C1319.5 186.5 1321.7 183.3 1324.2 180.4C1328.8 175.1 1333.6 169.9 1338.3 164.6C1342.6 159.6 1346.8 154.6 1351.1 149.6C1352.2 148.4 1353.4 147.3 1354.5 146.1C1358.5 141.7 1362.5 137.4 1366.4 133C1369.1 130 1371.5 126.7 1374.2 123.7C1376.4 121.2 1378.8 118.8 1381 116.3C1383.5 113.5 1385.8 110.6 1388.3 107.9C1389.3 106.8 1389.5 105.8 1388.5 104.6C1384.8 100.2 1383.1 94.7 1380.7 89.6C1379.4 86.7 1378.8 83.3 1377.9 80.2C1379.1 80.2 1380.3 80.3 1381.2 80.3C1383.4 86 1385.1 91.4 1387.6 96.5C1389.2 99.9 1391.6 103 1394.1 105.7C1396.6 108.5 1399.6 111 1402.7 113.2C1407 116.3 1411.4 119.2 1416 121.7C1418.2 122.9 1421 123 1423.5 123.6C1427 124.3 1430.5 125 1434 125.6C1436.6 126 1439.3 126.1 1441.9 126.4C1441.9 127.9 1441.9 129.4 1441.9 130.9C1441.5 130.9 1441.1 131 1440.7 131C1437.4 131.1 1437.5 131.1 1437.4 134.4C1437.3 138.2 1437.1 142.1 1436.8 145.9C1436.1 153.1 1435.1 160.3 1434.6 167.6C1434.2 173.8 1434.2 180 1434 186.2C1433.9 188.7 1433.6 191.1 1433.4 193.6C1432.8 199.7 1432 205.8 1431.6 211.9C1431.3 215.5 1431.5 219.1 1431.4 222.7C1431.3 224.9 1431 227.1 1430.9 229.3C1430.6 235.4 1430.5 241.5 1430.2 247.6C1429.9 253 1429.5 258.3 1429.1 263.6C1428.9 266.4 1428.7 269.2 1428.4 272C1428.1 275.7 1427.8 279.4 1427.4 283C1426.9 288.7 1426.4 294.5 1425.8 300.2C1425.6 302.1 1424.9 303.9 1424.7 305.8C1424.3 310.6 1424 315.4 1423.7 320.2C1423.4 323.8 1422.1 327.3 1423.9 330.9C1424.9 332.9 1425.5 335.2 1426.1 337.4C1426.3 338 1425.8 338.7 1425.6 339.3C1424.9 339.1 1424.2 339 1423.7 338.7C1423.4 338.5 1423.4 337.9 1423.1 337.6C1422.7 337.2 1422.1 336.9 1421.6 336.6C1421.3 337.1 1420.7 337.6 1420.8 338.1C1420.9 342.1 1421.3 346.1 1421.4 350C1421.5 351.6 1421.2 353.3 1421 354.9C1420.3 355 1419.7 355 1419 355Z" fill="black"/>
<path d="M1440.5 2.4C1435.8 2.8 1431.1 3.1 1426.4 3.9C1419.5 5.1 1413.1 7.7 1406.9 11.1C1402.1 13.7 1398 17.1 1394.7 21.2C1391.2 25.6 1388.7 30.2 1386.1 35.1C1383.8 39.4 1384.2 41.4 1382.6 46.1C1381 50.7 1379.6 55.9 1379.7 60.7C1379.8 63.1 1379.4 66.1 1379.5 68.5C1379.5 71.7 1381.1 76.7 1381.3 80C1381.3 80.1 1381.2 80.1 1381.2 80.1C1380.4 80 1378 80.7 1378 79.9C1377.8 76 1376.8 70.1 1376.8 66.1C1376.8 63.8 1376.9 61.5 1377.1 59.2C1377.3 56.7 1377.4 54.1 1378.1 51.7C1379.6 46.5 1381.7 41.4 1383.2 36.2C1384.9 30.4 1388.5 25.8 1392 21.2C1395.8 16.3 1400.1 11.9 1405.9 9.2C1409.7 7.5 1413.2 5 1417.1 4C1421.8 2.8 1426.4 0.899997 1431.4 1.2C1433.2 1.3 1435.1 0.599997 1437 0.199997H1440.3C1440.4 1.6 1440.4 0.999997 1440.5 2.4Z" fill="white"/>
</svg>
