<svg width="32" height="32" viewBox="0 0 32 32" fill="none" xmlns="http://www.w3.org/2000/svg">
  <mask id="mask0" style="maskType: 'alpha'" maskUnits="userSpaceOnUse" x="0" y="0" width="32" height="32">
  <path fill-rule="evenodd" clip-rule="evenodd" d="M0 0H32V32H0V0Z" fill="white"/>
  </mask>
  <g mask="url(#mask0)">
  <path fill-rule="evenodd" clip-rule="evenodd" d="M10.922 27.1C21.6281 27.1 27.4825 18.2137 27.4825 10.5082C27.4825 10.2555 27.4774 10.0041 27.4658 9.75426C28.6022 8.93112 29.5903 7.90393 30.3696 6.73478C29.3267 7.19896 28.2044 7.51169 27.0271 7.65279C28.2286 6.9309 29.1513 5.78873 29.5863 4.42693C28.4616 5.09488 27.2163 5.58079 25.8905 5.8424C24.8286 4.70901 23.3158 4 21.642 4C18.4275 4 15.8206 6.61166 15.8206 9.83115C15.8206 10.2887 15.8718 10.7339 15.9718 11.1608C11.1344 10.9171 6.84476 8.59651 3.97452 5.0679C3.47406 5.92963 3.18616 6.9309 3.18616 7.99908C3.18616 10.0222 4.2138 11.8081 5.77626 12.853C4.82169 12.8236 3.92463 12.5607 3.14022 12.1235C3.13895 12.1478 3.13895 12.1723 3.13895 12.198C3.13895 15.0225 5.14541 17.3803 7.80852 17.915C7.31964 18.0482 6.80518 18.1201 6.27412 18.1201C5.89916 18.1201 5.53458 18.0829 5.17997 18.015C5.92078 20.3317 8.0695 22.0177 10.6175 22.0653C8.62487 23.6293 6.11547 24.5614 3.38855 24.5614C2.91868 24.5614 2.45559 24.5344 2 24.4808C4.57605 26.1346 7.6344 27.1 10.922 27.1Z" fill="black"/>
  </g>
</svg>
